<svg xmlns="http://www.w3.org/2000/svg" viewBox="0 0 64 64" fill="none">
  <circle cx="32" cy="32" r="30" fill="#7DD3FC" stroke="#4ADE80" stroke-width="3"/>
  <path d="M32 8 L38 22 L32 28 L26 22 Z" fill="#34D399"/>
  <path d="M32 56 L26 42 L32 36 L38 42 Z" fill="#34D399"/>
  <path d="M8 32 L22 26 L28 32 L22 38 Z" fill="#F472B6"/>
  <path d="M56 32 L42 38 L36 32 L42 26 Z" fill="#F472B6"/>
  <path d="M14 14 L26 22 L22 32 L12 28 Z" fill="#4ADE80" opacity="0.8"/>
  <path d="M50 14 L52 28 L42 32 L38 22 Z" fill="#F87171" opacity="0.8"/>
  <path d="M14 50 L12 36 L22 32 L26 42 Z" fill="#F87171" opacity="0.8"/>
  <path d="M50 50 L38 42 L42 32 L52 36 Z" fill="#4ADE80" opacity="0.8"/>
</svg>
